<mxfile host="Electron" agent="Mozilla/5.0 (Windows NT 10.0; Win64; x64) AppleWebKit/537.36 (KHTML, like Gecko) draw.io/24.7.17 Chrome/128.0.6613.36 Electron/32.0.1 Safari/537.36" version="24.7.17">
  <diagram name="Страница — 1" id="CPp_jiu-BLnzEKdEbY_K">
    <mxGraphModel dx="472" dy="835" grid="1" gridSize="10" guides="1" tooltips="1" connect="1" arrows="1" fold="1" page="1" pageScale="1" pageWidth="827" pageHeight="1169" math="0" shadow="0">
      <root>
        <mxCell id="0" />
        <mxCell id="1" parent="0" />
        <mxCell id="LefdrT6UlM4HtIoz6M8Q-3" style="edgeStyle=orthogonalEdgeStyle;rounded=0;orthogonalLoop=1;jettySize=auto;html=1;exitX=0.5;exitY=1;exitDx=0;exitDy=0;entryX=0.5;entryY=0;entryDx=0;entryDy=0;" edge="1" parent="1" source="LefdrT6UlM4HtIoz6M8Q-1">
          <mxGeometry relative="1" as="geometry">
            <mxPoint x="240" y="150" as="targetPoint" />
          </mxGeometry>
        </mxCell>
        <mxCell id="LefdrT6UlM4HtIoz6M8Q-1" value="Начало" style="ellipse;whiteSpace=wrap;html=1;" vertex="1" parent="1">
          <mxGeometry x="180" y="30" width="120" height="80" as="geometry" />
        </mxCell>
        <mxCell id="LefdrT6UlM4HtIoz6M8Q-4" value="" style="endArrow=none;dashed=1;html=1;dashPattern=1 3;strokeWidth=2;rounded=0;" edge="1" parent="1">
          <mxGeometry width="50" height="50" relative="1" as="geometry">
            <mxPoint x="330" y="130" as="sourcePoint" />
            <mxPoint x="240" y="130" as="targetPoint" />
          </mxGeometry>
        </mxCell>
        <mxCell id="LefdrT6UlM4HtIoz6M8Q-5" value="&lt;div&gt;#include &amp;lt;iostream&amp;gt;&lt;/div&gt;&lt;div&gt;#include &amp;lt;cmath&amp;gt;&lt;/div&gt;&lt;div&gt;using namespace std;&lt;/div&gt;&lt;div&gt;int main()&lt;/div&gt;&lt;div&gt;{&lt;/div&gt;&lt;div&gt;&lt;span style=&quot;white-space-collapse: collapse;&quot;&gt;&lt;span style=&quot;white-space-collapse: preserve;&quot;&gt;&#x9;&lt;/span&gt;setlocale(LC_ALL, &quot;Russian&quot;);&lt;/span&gt;&lt;/div&gt;&lt;div&gt;&lt;span style=&quot;white-space-collapse: collapse;&quot;&gt;&lt;span style=&quot;white-space-collapse: preserve;&quot;&gt;&#x9;&lt;/span&gt;float n, s, a;&lt;/span&gt;&lt;/div&gt;" style="strokeWidth=2;html=1;shape=mxgraph.flowchart.annotation_1;align=left;pointerEvents=1;" vertex="1" parent="1">
          <mxGeometry x="330" y="70" width="50" height="120" as="geometry" />
        </mxCell>
        <mxCell id="LefdrT6UlM4HtIoz6M8Q-20" style="edgeStyle=orthogonalEdgeStyle;rounded=0;orthogonalLoop=1;jettySize=auto;html=1;exitX=0.5;exitY=1;exitDx=0;exitDy=0;entryX=0;entryY=0.5;entryDx=0;entryDy=0;" edge="1" parent="1" source="LefdrT6UlM4HtIoz6M8Q-14">
          <mxGeometry relative="1" as="geometry">
            <mxPoint x="180" y="490" as="targetPoint" />
            <Array as="points">
              <mxPoint x="140" y="780" />
              <mxPoint x="40" y="780" />
              <mxPoint x="40" y="490" />
            </Array>
          </mxGeometry>
        </mxCell>
        <mxCell id="LefdrT6UlM4HtIoz6M8Q-26" style="edgeStyle=orthogonalEdgeStyle;rounded=0;orthogonalLoop=1;jettySize=auto;html=1;exitX=0.5;exitY=1;exitDx=0;exitDy=0;entryX=0.5;entryY=0;entryDx=0;entryDy=0;" edge="1" parent="1" target="LefdrT6UlM4HtIoz6M8Q-25">
          <mxGeometry relative="1" as="geometry">
            <mxPoint x="240" y="1150" as="sourcePoint" />
          </mxGeometry>
        </mxCell>
        <mxCell id="LefdrT6UlM4HtIoz6M8Q-25" value="Конец" style="ellipse;whiteSpace=wrap;html=1;" vertex="1" parent="1">
          <mxGeometry x="180" y="1200" width="120" height="80" as="geometry" />
        </mxCell>
        <mxCell id="LefdrT6UlM4HtIoz6M8Q-27" value="" style="endArrow=none;dashed=1;html=1;dashPattern=1 3;strokeWidth=2;rounded=0;" edge="1" parent="1">
          <mxGeometry width="50" height="50" relative="1" as="geometry">
            <mxPoint x="330" y="1180" as="sourcePoint" />
            <mxPoint x="240" y="1180" as="targetPoint" />
          </mxGeometry>
        </mxCell>
        <mxCell id="LefdrT6UlM4HtIoz6M8Q-28" value="&lt;div&gt;&lt;span style=&quot;white-space-collapse: collapse;&quot;&gt;&lt;span style=&quot;white-space-collapse: preserve;&quot;&gt;&#x9;&lt;/span&gt;return 0;&lt;/span&gt;&lt;/div&gt;&lt;div&gt;}&lt;/div&gt;" style="strokeWidth=2;html=1;shape=mxgraph.flowchart.annotation_1;align=left;pointerEvents=1;" vertex="1" parent="1">
          <mxGeometry x="330" y="1130" width="50" height="100" as="geometry" />
        </mxCell>
        <mxCell id="LefdrT6UlM4HtIoz6M8Q-47" style="edgeStyle=orthogonalEdgeStyle;rounded=0;orthogonalLoop=1;jettySize=auto;html=1;exitX=0.5;exitY=1;exitDx=0;exitDy=0;" edge="1" parent="1" source="LefdrT6UlM4HtIoz6M8Q-45" target="LefdrT6UlM4HtIoz6M8Q-46">
          <mxGeometry relative="1" as="geometry" />
        </mxCell>
        <mxCell id="LefdrT6UlM4HtIoz6M8Q-45" value="&lt;div&gt;&lt;span style=&quot;white-space: normal;&quot;&gt;int i = 1;&lt;/span&gt;&lt;/div&gt;&lt;div&gt;&lt;span style=&quot;white-space: normal;&quot;&gt;bool flag = false;&lt;/span&gt;&lt;/div&gt;" style="rounded=0;whiteSpace=wrap;html=1;" vertex="1" parent="1">
          <mxGeometry x="180" y="150" width="120" height="60" as="geometry" />
        </mxCell>
        <mxCell id="LefdrT6UlM4HtIoz6M8Q-49" style="edgeStyle=orthogonalEdgeStyle;rounded=0;orthogonalLoop=1;jettySize=auto;html=1;exitX=0.5;exitY=1;exitDx=0;exitDy=0;entryX=0.5;entryY=0;entryDx=0;entryDy=0;" edge="1" parent="1" source="LefdrT6UlM4HtIoz6M8Q-46" target="LefdrT6UlM4HtIoz6M8Q-48">
          <mxGeometry relative="1" as="geometry" />
        </mxCell>
        <mxCell id="LefdrT6UlM4HtIoz6M8Q-46" value="cout &amp;lt;&amp;lt; &quot;Введите 2 числа: \n&quot;;" style="shape=parallelogram;perimeter=parallelogramPerimeter;whiteSpace=wrap;html=1;fixedSize=1;" vertex="1" parent="1">
          <mxGeometry x="180" y="250" width="120" height="60" as="geometry" />
        </mxCell>
        <mxCell id="LefdrT6UlM4HtIoz6M8Q-53" style="edgeStyle=orthogonalEdgeStyle;rounded=0;orthogonalLoop=1;jettySize=auto;html=1;exitX=0.5;exitY=1;exitDx=0;exitDy=0;entryX=0.5;entryY=0;entryDx=0;entryDy=0;" edge="1" parent="1" source="LefdrT6UlM4HtIoz6M8Q-48">
          <mxGeometry relative="1" as="geometry">
            <mxPoint x="240" y="450" as="targetPoint" />
          </mxGeometry>
        </mxCell>
        <mxCell id="LefdrT6UlM4HtIoz6M8Q-48" value="cin &amp;gt;&amp;gt; n &amp;gt;&amp;gt; s;" style="shape=parallelogram;perimeter=parallelogramPerimeter;whiteSpace=wrap;html=1;fixedSize=1;" vertex="1" parent="1">
          <mxGeometry x="180" y="350" width="120" height="60" as="geometry" />
        </mxCell>
        <mxCell id="LefdrT6UlM4HtIoz6M8Q-67" style="edgeStyle=orthogonalEdgeStyle;rounded=0;orthogonalLoop=1;jettySize=auto;html=1;exitX=0.5;exitY=1;exitDx=0;exitDy=0;entryX=0;entryY=0.5;entryDx=0;entryDy=0;" edge="1" parent="1" source="LefdrT6UlM4HtIoz6M8Q-61">
          <mxGeometry relative="1" as="geometry">
            <mxPoint x="180" y="490" as="targetPoint" />
            <Array as="points">
              <mxPoint x="140" y="770" />
              <mxPoint x="60" y="770" />
              <mxPoint x="60" y="490" />
            </Array>
          </mxGeometry>
        </mxCell>
        <mxCell id="LefdrT6UlM4HtIoz6M8Q-80" style="edgeStyle=orthogonalEdgeStyle;rounded=0;orthogonalLoop=1;jettySize=auto;html=1;exitX=0.5;exitY=1;exitDx=0;exitDy=0;entryX=0.5;entryY=0;entryDx=0;entryDy=0;" edge="1" parent="1" source="LefdrT6UlM4HtIoz6M8Q-70" target="LefdrT6UlM4HtIoz6M8Q-71">
          <mxGeometry relative="1" as="geometry" />
        </mxCell>
        <mxCell id="LefdrT6UlM4HtIoz6M8Q-97" style="edgeStyle=orthogonalEdgeStyle;rounded=0;orthogonalLoop=1;jettySize=auto;html=1;exitX=1;exitY=0.5;exitDx=0;exitDy=0;entryX=0.5;entryY=0;entryDx=0;entryDy=0;" edge="1" parent="1" source="LefdrT6UlM4HtIoz6M8Q-70" target="LefdrT6UlM4HtIoz6M8Q-92">
          <mxGeometry relative="1" as="geometry">
            <Array as="points">
              <mxPoint x="430" y="490" />
              <mxPoint x="430" y="910" />
              <mxPoint x="230" y="910" />
            </Array>
          </mxGeometry>
        </mxCell>
        <mxCell id="LefdrT6UlM4HtIoz6M8Q-70" value="while (i &amp;lt;= n &amp;amp;&amp;amp; !flag)" style="shape=hexagon;perimeter=hexagonPerimeter2;whiteSpace=wrap;html=1;fixedSize=1;" vertex="1" parent="1">
          <mxGeometry x="180" y="450" width="120" height="80" as="geometry" />
        </mxCell>
        <mxCell id="LefdrT6UlM4HtIoz6M8Q-79" style="edgeStyle=orthogonalEdgeStyle;rounded=0;orthogonalLoop=1;jettySize=auto;html=1;exitX=0.5;exitY=1;exitDx=0;exitDy=0;entryX=0.5;entryY=0;entryDx=0;entryDy=0;" edge="1" parent="1" source="LefdrT6UlM4HtIoz6M8Q-71" target="LefdrT6UlM4HtIoz6M8Q-72">
          <mxGeometry relative="1" as="geometry" />
        </mxCell>
        <mxCell id="LefdrT6UlM4HtIoz6M8Q-71" value="a = sin(n + i / n);" style="rounded=0;whiteSpace=wrap;html=1;" vertex="1" parent="1">
          <mxGeometry x="180" y="570" width="120" height="60" as="geometry" />
        </mxCell>
        <mxCell id="LefdrT6UlM4HtIoz6M8Q-75" style="edgeStyle=orthogonalEdgeStyle;rounded=0;orthogonalLoop=1;jettySize=auto;html=1;exitX=0;exitY=0.5;exitDx=0;exitDy=0;entryX=0.5;entryY=0;entryDx=0;entryDy=0;" edge="1" parent="1" source="LefdrT6UlM4HtIoz6M8Q-72" target="LefdrT6UlM4HtIoz6M8Q-73">
          <mxGeometry relative="1" as="geometry" />
        </mxCell>
        <mxCell id="LefdrT6UlM4HtIoz6M8Q-77" style="edgeStyle=orthogonalEdgeStyle;rounded=0;orthogonalLoop=1;jettySize=auto;html=1;exitX=1;exitY=0.5;exitDx=0;exitDy=0;entryX=0.5;entryY=0;entryDx=0;entryDy=0;" edge="1" parent="1" source="LefdrT6UlM4HtIoz6M8Q-72" target="LefdrT6UlM4HtIoz6M8Q-74">
          <mxGeometry relative="1" as="geometry" />
        </mxCell>
        <mxCell id="LefdrT6UlM4HtIoz6M8Q-72" value="if (a == s)" style="rhombus;whiteSpace=wrap;html=1;" vertex="1" parent="1">
          <mxGeometry x="200" y="660" width="80" height="80" as="geometry" />
        </mxCell>
        <mxCell id="LefdrT6UlM4HtIoz6M8Q-81" style="edgeStyle=orthogonalEdgeStyle;rounded=0;orthogonalLoop=1;jettySize=auto;html=1;exitX=0.5;exitY=1;exitDx=0;exitDy=0;entryX=0;entryY=0.5;entryDx=0;entryDy=0;" edge="1" parent="1" source="LefdrT6UlM4HtIoz6M8Q-73" target="LefdrT6UlM4HtIoz6M8Q-70">
          <mxGeometry relative="1" as="geometry">
            <Array as="points">
              <mxPoint x="140" y="870" />
              <mxPoint x="50" y="870" />
              <mxPoint x="50" y="490" />
            </Array>
          </mxGeometry>
        </mxCell>
        <mxCell id="LefdrT6UlM4HtIoz6M8Q-73" value="flag = true;" style="rounded=0;whiteSpace=wrap;html=1;" vertex="1" parent="1">
          <mxGeometry x="80" y="770" width="120" height="60" as="geometry" />
        </mxCell>
        <mxCell id="LefdrT6UlM4HtIoz6M8Q-82" style="edgeStyle=orthogonalEdgeStyle;rounded=0;orthogonalLoop=1;jettySize=auto;html=1;exitX=0.5;exitY=1;exitDx=0;exitDy=0;" edge="1" parent="1" source="LefdrT6UlM4HtIoz6M8Q-74">
          <mxGeometry relative="1" as="geometry">
            <mxPoint x="140" y="870" as="targetPoint" />
            <Array as="points">
              <mxPoint x="340" y="870" />
            </Array>
          </mxGeometry>
        </mxCell>
        <mxCell id="LefdrT6UlM4HtIoz6M8Q-74" value="i++;" style="rounded=0;whiteSpace=wrap;html=1;" vertex="1" parent="1">
          <mxGeometry x="280" y="770" width="120" height="60" as="geometry" />
        </mxCell>
        <mxCell id="LefdrT6UlM4HtIoz6M8Q-76" value="1" style="text;html=1;align=center;verticalAlign=middle;resizable=0;points=[];autosize=1;strokeColor=none;fillColor=none;" vertex="1" parent="1">
          <mxGeometry x="135" y="678" width="30" height="30" as="geometry" />
        </mxCell>
        <mxCell id="LefdrT6UlM4HtIoz6M8Q-78" value="0" style="text;html=1;align=center;verticalAlign=middle;resizable=0;points=[];autosize=1;strokeColor=none;fillColor=none;" vertex="1" parent="1">
          <mxGeometry x="325" y="668" width="30" height="30" as="geometry" />
        </mxCell>
        <mxCell id="LefdrT6UlM4HtIoz6M8Q-90" style="edgeStyle=orthogonalEdgeStyle;rounded=0;orthogonalLoop=1;jettySize=auto;html=1;exitX=0;exitY=0.5;exitDx=0;exitDy=0;entryX=0.5;entryY=0;entryDx=0;entryDy=0;" edge="1" parent="1" source="LefdrT6UlM4HtIoz6M8Q-92">
          <mxGeometry relative="1" as="geometry">
            <mxPoint x="130" y="1040" as="targetPoint" />
          </mxGeometry>
        </mxCell>
        <mxCell id="LefdrT6UlM4HtIoz6M8Q-91" style="edgeStyle=orthogonalEdgeStyle;rounded=0;orthogonalLoop=1;jettySize=auto;html=1;exitX=1;exitY=0.5;exitDx=0;exitDy=0;entryX=0.5;entryY=0;entryDx=0;entryDy=0;" edge="1" parent="1" source="LefdrT6UlM4HtIoz6M8Q-92">
          <mxGeometry relative="1" as="geometry">
            <mxPoint x="330" y="1040" as="targetPoint" />
          </mxGeometry>
        </mxCell>
        <mxCell id="LefdrT6UlM4HtIoz6M8Q-92" value="if (flag)" style="rhombus;whiteSpace=wrap;html=1;" vertex="1" parent="1">
          <mxGeometry x="190" y="930" width="80" height="80" as="geometry" />
        </mxCell>
        <mxCell id="LefdrT6UlM4HtIoz6M8Q-95" value="1" style="text;html=1;align=center;verticalAlign=middle;resizable=0;points=[];autosize=1;strokeColor=none;fillColor=none;" vertex="1" parent="1">
          <mxGeometry x="125" y="948" width="30" height="30" as="geometry" />
        </mxCell>
        <mxCell id="LefdrT6UlM4HtIoz6M8Q-96" value="0" style="text;html=1;align=center;verticalAlign=middle;resizable=0;points=[];autosize=1;strokeColor=none;fillColor=none;" vertex="1" parent="1">
          <mxGeometry x="315" y="938" width="30" height="30" as="geometry" />
        </mxCell>
        <mxCell id="LefdrT6UlM4HtIoz6M8Q-101" style="edgeStyle=orthogonalEdgeStyle;rounded=0;orthogonalLoop=1;jettySize=auto;html=1;exitX=0.5;exitY=1;exitDx=0;exitDy=0;" edge="1" parent="1" source="LefdrT6UlM4HtIoz6M8Q-98">
          <mxGeometry relative="1" as="geometry">
            <mxPoint x="240" y="1200" as="targetPoint" />
          </mxGeometry>
        </mxCell>
        <mxCell id="LefdrT6UlM4HtIoz6M8Q-98" value="cout &amp;lt;&amp;lt; &quot;Элемент найден&quot; &amp;lt;&amp;lt; endl;" style="shape=parallelogram;perimeter=parallelogramPerimeter;whiteSpace=wrap;html=1;fixedSize=1;" vertex="1" parent="1">
          <mxGeometry x="70" y="1040" width="120" height="60" as="geometry" />
        </mxCell>
        <mxCell id="LefdrT6UlM4HtIoz6M8Q-100" style="edgeStyle=orthogonalEdgeStyle;rounded=0;orthogonalLoop=1;jettySize=auto;html=1;exitX=0.5;exitY=1;exitDx=0;exitDy=0;" edge="1" parent="1" source="LefdrT6UlM4HtIoz6M8Q-99">
          <mxGeometry relative="1" as="geometry">
            <mxPoint x="240" y="1200" as="targetPoint" />
            <Array as="points">
              <mxPoint x="330" y="1120" />
              <mxPoint x="240" y="1120" />
            </Array>
          </mxGeometry>
        </mxCell>
        <mxCell id="LefdrT6UlM4HtIoz6M8Q-99" value="cout &amp;lt;&amp;lt; &quot;Элемент не найден&quot; &amp;lt;&amp;lt; endl;" style="shape=parallelogram;perimeter=parallelogramPerimeter;whiteSpace=wrap;html=1;fixedSize=1;" vertex="1" parent="1">
          <mxGeometry x="270" y="1040" width="120" height="60" as="geometry" />
        </mxCell>
      </root>
    </mxGraphModel>
  </diagram>
</mxfile>
